<svg width="16" height="12" viewBox="0 0 16 12" fill="none" xmlns="http://www.w3.org/2000/svg">
<g clip-path="url(#clip0_1_4990)">
<path d="M7.9369 7.41724L5.64585 9.67784V1.23462C5.64585 1.05403 5.57271 0.880838 5.44251 0.753144C5.31231 0.625449 5.13572 0.553711 4.9516 0.553711C4.76747 0.553711 4.59088 0.625449 4.46068 0.753144C4.33048 0.880838 4.25734 1.05403 4.25734 1.23462V9.67784L1.96629 7.43086C1.90175 7.36703 1.82497 7.31638 1.74037 7.28181C1.65576 7.24724 1.56502 7.22944 1.47337 7.22944C1.38172 7.22944 1.29098 7.24724 1.20638 7.28181C1.12177 7.31638 1.04499 7.36703 0.980449 7.43086C0.851143 7.55843 0.778564 7.73101 0.778564 7.91089C0.778564 8.09078 0.851143 8.26336 0.980449 8.39093L4.45173 11.7955C4.51594 11.8613 4.59417 11.9125 4.68084 11.9453C4.76394 11.9813 4.8538 11.9999 4.94465 11.9999C5.03551 11.9999 5.12537 11.9813 5.20847 11.9453C5.29606 11.9142 5.37467 11.8628 5.43757 11.7955L8.90886 8.39093C9.03816 8.26336 9.11074 8.09078 9.11074 7.91089C9.11074 7.73101 9.03816 7.55843 8.90886 7.43086C8.78091 7.30426 8.60744 7.23192 8.42571 7.22938C8.24398 7.22683 8.06848 7.29428 7.9369 7.41724Z" fill="#17201D"/>
<path d="M15.1711 4.16937L11.6998 0.764841C11.6356 0.698995 11.5573 0.647847 11.4707 0.615042C11.3017 0.546939 11.1121 0.546939 10.943 0.615042C10.8555 0.646083 10.7768 0.697484 10.7139 0.764841L7.24266 4.16937C7.11335 4.29694 7.04077 4.46952 7.04077 4.64941C7.04077 4.82929 7.11335 5.00187 7.24266 5.12944C7.3072 5.19326 7.38398 5.24392 7.46858 5.27849C7.55318 5.31306 7.64393 5.33085 7.73558 5.33085C7.82723 5.33085 7.91797 5.31306 8.00257 5.27849C8.08717 5.24392 8.16396 5.19326 8.2285 5.12944L10.5057 2.86884V11.3121C10.5057 11.4927 10.5788 11.6658 10.709 11.7935C10.8392 11.9212 11.0158 11.993 11.1999 11.993C11.384 11.993 11.5606 11.9212 11.6908 11.7935C11.821 11.6658 11.8942 11.4927 11.8942 11.3121V2.86884L14.1852 5.11583C14.2501 5.17893 14.327 5.22886 14.4116 5.26275C14.4962 5.29663 14.5868 5.31381 14.6781 5.31329C14.7695 5.31381 14.8601 5.29663 14.9447 5.26275C15.0293 5.22886 15.1062 5.17893 15.1711 5.11583C15.2962 4.98886 15.3661 4.81918 15.3661 4.6426C15.3661 4.46601 15.2962 4.29633 15.1711 4.16937Z" fill="#17201D"/>
</g>
<defs>
<clipPath id="clip0_1_4990">
<rect width="16" height="12" fill="white"/>
</clipPath>
</defs>
</svg>
